<svg width="128" height="128" viewBox="0 0 128 128" fill="none" xmlns="http://www.w3.org/2000/svg">
<g filter="url(#filter0_d_63_53)">
<ellipse cx="63.8837" cy="70.8552" rx="41.1316" ry="41.1316" fill="url(#paint0_radial_63_53)"/>
</g>
<path d="M22.7519 70.8549C22.7519 76.3212 23.8185 81.5386 25.7544 86.3101C24.6426 87.3927 23.6031 88.4587 22.6388 89.5027C20.082 92.2709 18.2798 94.6482 17.0769 96.5635C19.3387 96.5681 22.3112 96.3131 26.0169 95.6276C27.4098 95.3699 28.8608 95.0596 30.3643 94.6984C33.4801 99.0708 37.4303 102.807 41.9821 105.676C22.1625 111.942 6.63799 112.019 2.5369 104.584C-1.57207 97.1333 6.81677 84.0049 22.7532 70.5564C22.7525 70.6558 22.7519 70.7553 22.7519 70.8549Z" fill="url(#paint1_linear_63_53)"/>
<path d="M85.503 35.8576C105.569 29.4297 121.328 29.2872 125.464 36.7868L125.604 37.0533C129.392 44.5842 120.912 57.6507 105.014 71.0082C105.014 70.9572 105.015 70.906 105.015 70.8549C105.015 65.3566 103.936 60.1104 101.978 55.3161C103.191 54.1448 104.321 52.9946 105.362 51.8677C107.918 49.0997 109.719 46.7216 110.922 44.8063C108.661 44.8018 105.689 45.0574 101.984 45.7428C100.466 46.0237 98.8788 46.3674 97.2299 46.7711C94.0765 42.4126 90.0897 38.697 85.503 35.8576Z" fill="url(#paint2_linear_63_53)"/>
<path d="M93.0907 33.6709C109.468 29.5199 121.865 30.2622 125.464 36.7872L125.604 37.0536C131.338 48.456 108.954 72.5512 75.273 91.1265C41.3279 109.848 8.7629 115.873 2.53626 104.583C-0.754747 98.6159 3.97211 89.0062 14.1728 78.5066C14.378 79.5461 14.7206 80.5394 15.2064 81.4776C16.8393 84.6302 19.9168 86.8165 24.0165 88.0504C23.5417 88.539 23.0821 89.0228 22.6388 89.5027C20.082 92.271 18.2792 94.6485 17.0762 96.5639C19.3381 96.5684 22.3106 96.3128 26.0162 95.6273C37.3789 93.5252 52.6086 87.9693 68.6521 79.1211C84.6957 70.2728 97.5208 60.3562 105.361 51.8674C107.918 49.0995 109.719 46.7219 110.922 44.8066C108.66 44.8022 105.688 45.0571 101.983 45.7425C101.041 45.9169 100.072 46.1165 99.0777 46.3384C99.5091 43.516 99.1809 40.8934 97.9931 38.6001C96.9312 36.5498 95.2584 34.9077 93.0907 33.6709Z" fill="url(#paint3_linear_63_53)"/>
<path d="M73.4809 16.0132C73.4809 25.4783 81.154 33.1513 90.6191 33.1513C81.154 33.1513 73.4809 40.8244 73.4809 50.2895C73.4809 40.8244 65.8079 33.1513 56.3428 33.1513C65.8079 33.1513 73.4809 25.4783 73.4809 16.0132Z" fill="#D9D9D9"/>
<defs>
<filter id="filter0_d_63_53" x="15.1521" y="26.1236" width="97.4631" height="97.4632" filterUnits="userSpaceOnUse" color-interpolation-filters="sRGB">
<feFlood flood-opacity="0" result="BackgroundImageFix"/>
<feColorMatrix in="SourceAlpha" type="matrix" values="0 0 0 0 0 0 0 0 0 0 0 0 0 0 0 0 0 0 127 0" result="hardAlpha"/>
<feMorphology radius="2" operator="dilate" in="SourceAlpha" result="effect1_dropShadow_63_53"/>
<feOffset dy="4"/>
<feGaussianBlur stdDeviation="2.8"/>
<feComposite in2="hardAlpha" operator="out"/>
<feColorMatrix type="matrix" values="0 0 0 0 0 0 0 0 0 0 0 0 0 0 0 0 0 0 0.14 0"/>
<feBlend mode="normal" in2="BackgroundImageFix" result="effect1_dropShadow_63_53"/>
<feBlend mode="normal" in="SourceGraphic" in2="effect1_dropShadow_63_53" result="shape"/>
</filter>
<radialGradient id="paint0_radial_63_53" cx="0" cy="0" r="1" gradientUnits="userSpaceOnUse" gradientTransform="translate(35.4344 88.3361) rotate(-17.0764) scale(54.8614 54.8614)">
<stop stop-color="#006EFE"/>
<stop offset="1" stop-color="#010101"/>
</radialGradient>
<linearGradient id="paint1_linear_63_53" x1="8.01325" y1="97.5908" x2="136.207" y2="31.0947" gradientUnits="userSpaceOnUse">
<stop stop-color="#74B0FF"/>
<stop offset="0.514423" stop-color="#006EFE"/>
<stop offset="1" stop-color="#004298"/>
</linearGradient>
<linearGradient id="paint2_linear_63_53" x1="8.01325" y1="97.5908" x2="136.207" y2="31.0947" gradientUnits="userSpaceOnUse">
<stop stop-color="#74B0FF"/>
<stop offset="0.514423" stop-color="#006EFE"/>
<stop offset="1" stop-color="#004298"/>
</linearGradient>
<linearGradient id="paint3_linear_63_53" x1="8.01325" y1="97.5908" x2="136.207" y2="31.0947" gradientUnits="userSpaceOnUse">
<stop stop-color="#74B0FF"/>
<stop offset="0.514423" stop-color="#006EFE"/>
<stop offset="1" stop-color="#004298"/>
</linearGradient>
</defs>
</svg>
