<svg width="1024" height="1024" viewBox="0 0 1024 1024" fill="none" xmlns="http://www.w3.org/2000/svg">
<path d="M64 183.467C64 117.487 117.487 64 183.467 64H840.533C906.513 64 960 117.487 960 183.467V840.533C960 906.513 906.513 960 840.533 960H183.467C117.487 960 64 906.513 64 840.533V183.467Z" fill="url(#paint0_linear_63_60)"/>
<rect width="896" height="896" rx="128" transform="matrix(0 1 1 0 64 64)" fill="black" fill-opacity="0.1" style="mix-blend-mode:multiply"/>
<rect width="896" height="896" rx="128" transform="matrix(0 1 1 0 64 64)" fill="black" fill-opacity="0.1" style="mix-blend-mode:multiply"/>
<rect width="896" height="896" rx="128" transform="matrix(0 1 1 0 64 64)" fill="black" fill-opacity="0.1" style="mix-blend-mode:multiply"/>
<path d="M204.875 364.125C204.875 356.393 211.143 350.125 218.875 350.125C211.143 350.125 204.875 343.857 204.875 336.125C204.875 343.857 198.607 350.125 190.875 350.125C198.607 350.125 204.875 356.393 204.875 364.125Z" fill="white"/>
<path d="M309.875 264.375C309.875 250.361 321.236 239 335.25 239C321.236 239 309.875 227.639 309.875 213.625C309.875 227.639 298.514 239 284.5 239C298.514 239 309.875 250.361 309.875 264.375Z" fill="white"/>
<path d="M335.25 386.875C335.25 372.861 346.611 361.5 360.625 361.5C346.611 361.5 335.25 350.139 335.25 336.125C335.25 350.139 323.889 361.5 309.875 361.5C323.889 361.5 335.25 372.861 335.25 386.875Z" fill="white"/>
<path d="M819.125 620.5C819.125 608.902 828.527 599.5 840.125 599.5C828.527 599.5 819.125 590.098 819.125 578.5C819.125 590.098 809.723 599.5 798.125 599.5C809.723 599.5 819.125 608.902 819.125 620.5Z" fill="white"/>
<path d="M732.5 776.25C732.5 754.021 750.521 736 772.75 736C750.521 736 732.5 717.979 732.5 695.75C732.5 717.979 714.479 736 692.25 736C714.479 736 732.5 754.021 732.5 776.25Z" fill="white"/>
<path d="M848.875 777.125C848.875 763.111 860.236 751.75 874.25 751.75C860.236 751.75 848.875 740.389 848.875 726.375C848.875 740.389 837.514 751.75 823.5 751.75C837.514 751.75 848.875 763.111 848.875 777.125Z" fill="white"/>
<rect width="896" height="896" rx="128" transform="matrix(0 1 1 0 64 64)" fill="black" fill-opacity="0.1" style="mix-blend-mode:multiply"/>
<g filter="url(#filter4_d_63_60)">
<circle cx="508.271" cy="512" r="224" fill="url(#paint1_radial_63_60)"/>
</g>
<path d="M284.27 511.998C284.27 541.767 290.078 570.18 300.621 596.166C294.566 602.061 288.905 607.867 283.654 613.553C269.73 628.628 259.915 641.574 253.364 652.005C265.682 652.03 281.87 650.642 302.05 646.908C309.636 645.505 317.538 643.815 325.726 641.848C342.695 665.66 364.207 686.008 388.996 701.632C281.06 735.755 196.514 736.172 174.18 695.682C151.803 655.108 197.488 583.612 284.277 510.372C284.273 510.913 284.27 511.455 284.27 511.998Z" fill="url(#paint2_linear_63_60)"/>
<path d="M626.008 321.405C735.286 286.399 821.11 285.623 843.635 326.465L844.397 327.916C865.023 368.929 818.842 440.089 732.262 512.833C732.263 512.555 732.27 512.276 732.27 511.998C732.269 482.054 726.393 453.484 715.732 427.375C722.334 420.996 728.49 414.732 734.158 408.595C748.081 393.52 757.889 380.569 764.44 370.139C752.123 370.114 735.938 371.506 715.761 375.239C707.494 376.769 698.852 378.64 689.872 380.839C672.699 357.103 650.987 336.868 626.008 321.405Z" fill="url(#paint3_linear_63_60)"/>
<path d="M667.33 309.496C756.518 286.89 824.034 290.932 843.632 326.467L844.394 327.918C875.623 390.015 753.718 521.236 570.296 622.396C385.433 724.35 208.086 757.162 174.177 695.681C156.254 663.183 181.996 610.849 237.548 553.668C238.666 559.33 240.531 564.739 243.178 569.848C252.07 587.017 268.83 598.924 291.157 605.643C288.571 608.304 286.068 610.939 283.654 613.553C269.729 628.628 259.912 641.576 253.36 652.007C265.678 652.032 281.866 650.64 302.047 646.907C363.927 635.459 446.867 605.202 534.239 557.015C621.612 508.828 691.456 454.822 734.155 408.593C748.077 393.519 757.886 380.571 764.437 370.141C752.12 370.116 735.935 371.505 715.758 375.237C710.625 376.187 705.348 377.274 699.935 378.482C702.284 363.112 700.497 348.83 694.029 336.34C688.245 325.174 679.136 316.231 667.33 309.496Z" fill="url(#paint4_linear_63_60)"/>
<path d="M560.537 213.333C560.537 264.88 602.324 306.667 653.871 306.667C602.324 306.667 560.537 348.453 560.537 400C560.537 348.453 518.75 306.667 467.204 306.667C518.75 306.667 560.537 264.88 560.537 213.333Z" fill="#D9D9D9"/>
<defs>
<filter id="filter4_d_63_60" x="276.671" y="284.4" width="463.2" height="463.2" filterUnits="userSpaceOnUse" color-interpolation-filters="sRGB">
<feFlood flood-opacity="0" result="BackgroundImageFix"/>
<feColorMatrix in="SourceAlpha" type="matrix" values="0 0 0 0 0 0 0 0 0 0 0 0 0 0 0 0 0 0 127 0" result="hardAlpha"/>
<feMorphology radius="2" operator="dilate" in="SourceAlpha" result="effect1_dropShadow_63_60"/>
<feOffset dy="4"/>
<feGaussianBlur stdDeviation="2.8"/>
<feComposite in2="hardAlpha" operator="out"/>
<feColorMatrix type="matrix" values="0 0 0 0 0 0 0 0 0 0 0 0 0 0 0 0 0 0 0.14 0"/>
<feBlend mode="normal" in2="BackgroundImageFix" result="effect1_dropShadow_63_60"/>
<feBlend mode="normal" in="SourceGraphic" in2="effect1_dropShadow_63_60" result="shape"/>
</filter>
<linearGradient id="paint0_linear_63_60" x1="512" y1="64" x2="512" y2="960" gradientUnits="userSpaceOnUse">
<stop offset="0.0625" stop-color="#161718"/>
<stop offset="0.1875" stop-color="#222222"/>
<stop offset="0.240385" stop-color="#161718"/>
<stop offset="0.466346"/>
<stop offset="0.793269" stop-color="#0053A1"/>
<stop offset="0.894231" stop-color="#002672"/>
<stop offset="0.947115"/>
</linearGradient>
<radialGradient id="paint1_radial_63_60" cx="0" cy="0" r="1" gradientUnits="userSpaceOnUse" gradientTransform="translate(353.337 607.2) rotate(-17.0764) scale(298.772)">
<stop stop-color="#006EFE"/>
<stop offset="1" stop-color="#010101"/>
</radialGradient>
<linearGradient id="paint2_linear_63_60" x1="204.004" y1="657.6" x2="902.137" y2="295.466" gradientUnits="userSpaceOnUse">
<stop stop-color="#74B0FF"/>
<stop offset="0.509615" stop-color="#006EFE"/>
<stop offset="1" stop-color="#004298"/>
</linearGradient>
<linearGradient id="paint3_linear_63_60" x1="204.004" y1="657.6" x2="902.137" y2="295.466" gradientUnits="userSpaceOnUse">
<stop stop-color="#74B0FF"/>
<stop offset="0.509615" stop-color="#006EFE"/>
<stop offset="1" stop-color="#004298"/>
</linearGradient>
<linearGradient id="paint4_linear_63_60" x1="204.004" y1="657.6" x2="902.137" y2="295.466" gradientUnits="userSpaceOnUse">
<stop stop-color="#74B0FF"/>
<stop offset="0.509615" stop-color="#006EFE"/>
<stop offset="1" stop-color="#004298"/>
</linearGradient>
</defs>
</svg>
