<svg width="1024" height="1024" viewBox="0 0 1024 1024" fill="none" xmlns="http://www.w3.org/2000/svg">
<rect width="896" height="896" rx="192" transform="matrix(0 1 1 0 64 64)" fill="url(#paint0_linear_63_60)"/>
<rect width="896" height="896" rx="192" transform="matrix(0 1 1 0 64 64)" fill="black" fill-opacity="0.1" style="mix-blend-mode:multiply"/>
<rect width="896" height="896" rx="192" transform="matrix(0 1 1 0 64 64)" fill="black" fill-opacity="0.1" style="mix-blend-mode:multiply"/>
<rect width="896" height="896" rx="192" transform="matrix(0 1 1 0 64 64)" fill="black" fill-opacity="0.1" style="mix-blend-mode:multiply"/>
<rect width="896" height="896" rx="192" transform="matrix(0 1 1 0 64 64)" fill="black" fill-opacity="0.1" style="mix-blend-mode:multiply"/>
<path d="M204.875 364.125C204.875 356.393 211.143 350.125 218.875 350.125C211.143 350.125 204.875 343.857 204.875 336.125C204.875 343.857 198.607 350.125 190.875 350.125C198.607 350.125 204.875 356.393 204.875 364.125Z" fill="white"/>
<path d="M309.875 264.375C309.875 250.361 321.236 239 335.25 239C321.236 239 309.875 227.639 309.875 213.625C309.875 227.639 298.514 239 284.5 239C298.514 239 309.875 250.361 309.875 264.375Z" fill="white"/>
<path d="M335.25 386.875C335.25 372.861 346.611 361.5 360.625 361.5C346.611 361.5 335.25 350.139 335.25 336.125C335.25 350.139 323.889 361.5 309.875 361.5C323.889 361.5 335.25 372.861 335.25 386.875Z" fill="white"/>
<path d="M819.125 620.5C819.125 608.902 828.527 599.5 840.125 599.5C828.527 599.5 819.125 590.098 819.125 578.5C819.125 590.098 809.723 599.5 798.125 599.5C809.723 599.5 819.125 608.902 819.125 620.5Z" fill="white"/>
<path d="M732.5 776.25C732.5 754.021 750.521 736 772.75 736C750.521 736 732.5 717.979 732.5 695.75C732.5 717.979 714.479 736 692.25 736C714.479 736 732.5 754.021 732.5 776.25Z" fill="white"/>
<path d="M848.875 777.125C848.875 763.111 860.236 751.75 874.25 751.75C860.236 751.75 848.875 740.389 848.875 726.375C848.875 740.389 837.514 751.75 823.5 751.75C837.514 751.75 848.875 763.111 848.875 777.125Z" fill="white"/>
<g filter="url(#filter4_d_63_60)">
<circle cx="508.271" cy="512" r="224" fill="url(#paint1_radial_63_60)"/>
</g>
<path d="M284.27 511.998C284.27 533.216 287.22 553.745 292.733 573.198C296.739 587.332 293.622 602.76 283.654 613.553C269.177 629.226 281.071 650.79 302.05 646.908C303.134 646.708 304.224 646.502 305.32 646.29C317.711 643.892 330.375 648.718 338.621 658.272C355.833 678.215 350.296 713.334 324.484 718.597C248.311 734.128 191.827 727.674 174.18 695.682C151.911 655.304 197.049 584.3 283.026 511.43C283.513 511.017 284.27 511.359 284.27 511.998Z" fill="url(#paint2_linear_63_60)"/>
<path d="M676.922 364.579C659.559 344.731 664.916 309.484 690.728 304.084C768.217 287.873 825.79 294.108 843.635 326.465L844.397 327.916C864.972 368.827 819.07 439.735 732.907 512.291C732.654 512.503 732.27 512.328 732.27 511.998C732.27 491.312 729.465 471.282 724.216 452.266C719.988 436.947 723.375 420.269 734.158 408.595C748.633 392.923 736.739 371.358 715.761 375.239C713.915 375.581 712.051 375.939 710.168 376.315C697.838 378.773 685.201 374.042 676.922 364.579Z" fill="url(#paint3_linear_63_60)"/>
<path d="M694.029 336.34C687.619 323.965 691.142 303.781 704.86 301.326C775.178 288.737 826.89 296.111 843.632 326.467L844.394 327.918C875.623 390.015 753.718 521.236 570.296 622.396C385.433 724.35 208.086 757.162 174.177 695.681C157.573 665.575 178.443 618.446 225.771 566.211C230.651 560.825 239.835 563.395 243.178 569.848C250.647 584.27 263.668 594.979 280.877 602.019C285.476 603.901 287.025 609.903 283.654 613.553C269.176 629.227 281.066 650.788 302.047 646.907C363.927 635.459 446.867 605.202 534.239 557.015C621.612 508.828 691.456 454.822 734.155 408.593C748.629 392.922 736.735 371.357 715.758 375.237C708.117 376.651 701.211 370.142 700.841 362.38C700.398 353.087 698.175 344.345 694.029 336.34Z" fill="url(#paint4_linear_63_60)"/>
<path d="M560.537 213.333C560.537 264.88 602.324 306.667 653.871 306.667C602.324 306.667 560.537 348.453 560.537 400C560.537 348.453 518.75 306.667 467.204 306.667C518.75 306.667 560.537 264.88 560.537 213.333Z" fill="#D9D9D9"/>
<defs>
<filter id="filter4_d_63_60" x="276.671" y="284.4" width="463.2" height="463.2" filterUnits="userSpaceOnUse" color-interpolation-filters="sRGB">
<feFlood flood-opacity="0" result="BackgroundImageFix"/>
<feColorMatrix in="SourceAlpha" type="matrix" values="0 0 0 0 0 0 0 0 0 0 0 0 0 0 0 0 0 0 127 0" result="hardAlpha"/>
<feMorphology radius="2" operator="dilate" in="SourceAlpha" result="effect1_dropShadow_63_60"/>
<feOffset dy="4"/>
<feGaussianBlur stdDeviation="2.8"/>
<feComposite in2="hardAlpha" operator="out"/>
<feColorMatrix type="matrix" values="0 0 0 0 0 0 0 0 0 0 0 0 0 0 0 0 0 0 0.14 0"/>
<feBlend mode="normal" in2="BackgroundImageFix" result="effect1_dropShadow_63_60"/>
<feBlend mode="normal" in="SourceGraphic" in2="effect1_dropShadow_63_60" result="shape"/>
</filter>
<linearGradient id="paint0_linear_63_60" x1="0" y1="448" x2="896" y2="448" gradientUnits="userSpaceOnUse">
<stop offset="0.0625" stop-color="#161718"/>
<stop offset="0.1875" stop-color="#222222"/>
<stop offset="0.240385" stop-color="#161718"/>
<stop offset="0.466346"/>
<stop offset="0.793269" stop-color="#0053A1"/>
<stop offset="0.894231" stop-color="#002672"/>
<stop offset="0.947115"/>
</linearGradient>
<radialGradient id="paint1_radial_63_60" cx="0" cy="0" r="1" gradientUnits="userSpaceOnUse" gradientTransform="translate(353.337 607.2) rotate(-17.0764) scale(298.772)">
<stop stop-color="#006EFE"/>
<stop offset="1" stop-color="#010101"/>
</radialGradient>
<linearGradient id="paint2_linear_63_60" x1="204.004" y1="657.6" x2="902.137" y2="295.466" gradientUnits="userSpaceOnUse">
<stop stop-color="#74B0FF"/>
<stop offset="0.509615" stop-color="#006EFE"/>
<stop offset="1" stop-color="#004298"/>
</linearGradient>
<linearGradient id="paint3_linear_63_60" x1="204.004" y1="657.6" x2="902.137" y2="295.466" gradientUnits="userSpaceOnUse">
<stop stop-color="#74B0FF"/>
<stop offset="0.509615" stop-color="#006EFE"/>
<stop offset="1" stop-color="#004298"/>
</linearGradient>
<linearGradient id="paint4_linear_63_60" x1="204.004" y1="657.6" x2="902.137" y2="295.466" gradientUnits="userSpaceOnUse">
<stop stop-color="#74B0FF"/>
<stop offset="0.509615" stop-color="#006EFE"/>
<stop offset="1" stop-color="#004298"/>
</linearGradient>
</defs>
</svg>
