<svg width="64" height="67" viewBox="0 0 64 67" fill="none" xmlns="http://www.w3.org/2000/svg">
<g filter="url(#filter0_d_63_21)">
<ellipse cx="31.944" cy="35.2906" rx="19.7432" ry="19.7432" fill="black"/>
<path d="M31.944 16.0474C42.5717 16.0474 51.1871 24.6628 51.1871 35.2905C51.1871 45.9182 42.5717 54.5337 31.944 54.5337C21.3163 54.5337 12.7008 45.9182 12.7008 35.2905C12.7008 24.6628 21.3163 16.0474 31.944 16.0474Z" stroke="white"/>
</g>
<path d="M54.6953 15.7092C54.7257 15.7095 54.7559 15.7078 54.7861 15.7083C54.8095 15.7086 54.8332 15.7108 54.8564 15.7112C54.9954 15.7136 55.1327 15.7176 55.2686 15.7229C55.3349 15.7255 55.401 15.7274 55.4668 15.7307C55.6737 15.741 55.877 15.7526 56.0762 15.7698C56.2533 15.785 56.4277 15.8046 56.5996 15.8254C56.613 15.8271 56.6263 15.8287 56.6396 15.8303C56.8067 15.8511 56.971 15.8754 57.1328 15.9016C57.1804 15.9093 57.2274 15.9188 57.2744 15.927C57.4041 15.9495 57.5322 15.9721 57.6582 15.9983C57.7064 16.0083 57.7541 16.02 57.8018 16.0305C57.9254 16.0579 58.0472 16.0864 58.167 16.1174C58.2139 16.1296 58.2603 16.1428 58.3066 16.1555C58.4147 16.1852 58.5213 16.2155 58.626 16.2483C58.6962 16.2703 58.7662 16.2913 58.835 16.3147C58.8585 16.3227 58.8819 16.3309 58.9053 16.3391C59.3033 16.4785 59.6744 16.642 60.0156 16.8313C60.0228 16.8353 60.03 16.839 60.0371 16.843C60.2653 16.9708 60.4793 17.1108 60.6797 17.262C60.6892 17.2691 60.6986 17.2763 60.708 17.2834C60.948 17.4671 61.1668 17.668 61.3633 17.887C61.3753 17.9003 61.3876 17.9135 61.3994 17.927C61.4357 17.9684 61.4712 18.0103 61.5059 18.053C61.5146 18.0638 61.5226 18.0753 61.5312 18.0862C61.5565 18.1179 61.582 18.1495 61.6064 18.1819C61.6321 18.2159 61.657 18.2506 61.6816 18.2854C61.693 18.3014 61.7047 18.3171 61.7158 18.3333C61.7298 18.3536 61.7432 18.3742 61.7568 18.3948C61.785 18.4373 61.8131 18.48 61.8398 18.5237C61.8414 18.5263 61.8431 18.5289 61.8447 18.5315L61.9404 18.6965L61.9453 18.7053L62.0127 18.8333L62.0166 18.8411C62.0598 18.927 62.0985 19.0147 62.1357 19.1028C62.1452 19.1252 62.155 19.1476 62.1641 19.1702C62.5523 20.1333 62.5912 21.2198 62.3428 22.3889C62.281 22.6804 62.2008 22.9764 62.1045 23.2766C62.0929 23.3127 62.0814 23.3488 62.0693 23.385C62.0313 23.4991 61.991 23.6136 61.9482 23.7288C61.9296 23.7788 61.9101 23.8288 61.8906 23.8792C61.8269 24.0439 61.7605 24.2106 61.6875 24.3772C61.6237 24.5228 61.5553 24.6689 61.4844 24.8167C61.4655 24.856 61.4461 24.8953 61.4268 24.9348C61.3706 25.0491 61.3123 25.164 61.252 25.2795C61.223 25.3349 61.1929 25.39 61.1631 25.4456C61.0991 25.5647 61.0332 25.6846 60.9648 25.8049C60.9419 25.8454 60.9199 25.8865 60.8965 25.927C60.8037 26.0876 60.7067 26.2488 60.6064 26.4114C60.6029 26.4171 60.6002 26.4233 60.5967 26.429C60.582 26.4527 60.5656 26.4755 60.5508 26.4993C60.4718 26.6259 60.3911 26.7533 60.3076 26.8811C60.2695 26.9395 60.2314 26.9983 60.1924 27.0569C60.1054 27.1875 60.0163 27.3188 59.9248 27.4504C59.903 27.4818 59.8805 27.5128 59.8584 27.5442C59.6164 27.8889 59.3599 28.2377 59.0879 28.5891C59.0614 28.6233 59.0346 28.6574 59.0078 28.6917C58.5813 29.2377 58.1192 29.7909 57.624 30.3499C57.6052 30.371 57.5863 30.3921 57.5674 30.4133C57.3669 30.6386 57.1623 30.8661 56.9512 31.093C55.8023 32.3281 54.4914 33.5897 53.0391 34.8616C52.8136 35.0591 52.5838 35.2556 52.3516 35.4534C52.2561 35.5347 52.1611 35.6171 52.0645 35.6985C52.0455 35.7144 52.0268 35.7314 52.0078 35.7473L51.1826 36.4407V36.428C47.3821 39.524 42.7865 42.6276 37.6523 45.4592C32.4458 48.3307 27.2982 50.5833 22.5986 52.1487L22.6104 52.1565L21.582 52.4817C21.5665 52.4866 21.5507 52.4905 21.5352 52.4954C20.6775 52.7658 19.8362 53.0124 19.0137 53.2346C18.9772 53.2445 18.9407 53.2542 18.9043 53.2639C18.3596 53.4099 17.8232 53.5448 17.2959 53.6692C17.2711 53.675 17.2465 53.6819 17.2217 53.6877C16.9649 53.7479 16.7104 53.8056 16.458 53.8606C16.4434 53.8638 16.4287 53.8662 16.4141 53.8694C15.9536 53.9692 15.5007 54.0615 15.0557 54.1438C15.0019 54.1537 14.9481 54.1624 14.8945 54.1721C14.8375 54.1825 14.7805 54.1924 14.7236 54.2024C14.5456 54.2338 14.3689 54.2636 14.1934 54.2922C14.1172 54.3046 14.0415 54.3175 13.9658 54.3293C13.4979 54.4027 13.0394 54.4663 12.5908 54.5188C12.5501 54.5236 12.5093 54.5279 12.4688 54.5325C12.2771 54.5542 12.0873 54.5733 11.8994 54.5911C11.8593 54.5949 11.8193 54.5992 11.7793 54.6028C11.3257 54.6439 10.8834 54.6729 10.4531 54.6907C10.4342 54.6915 10.4153 54.6919 10.3965 54.6926C10.2032 54.7002 10.0125 54.7055 9.82422 54.7083C9.79159 54.7087 9.75904 54.7089 9.72656 54.7092C9.3115 54.7134 8.90895 54.7065 8.51953 54.6868C8.50616 54.6861 8.49284 54.6845 8.47949 54.6838C8.30389 54.6745 8.13105 54.6629 7.96094 54.6487C7.93091 54.6462 7.90097 54.6435 7.87109 54.6409C7.69046 54.6247 7.51304 54.6061 7.33887 54.5842C7.3353 54.5838 7.33169 54.5837 7.32812 54.5833C7.16309 54.5624 7.00087 54.54 6.8418 54.5139C6.82683 54.5115 6.8118 54.5076 6.79688 54.5051C6.76612 54.5 6.73563 54.4939 6.70508 54.4885C6.56024 54.4632 6.41769 54.4355 6.27734 54.4055C6.25023 54.3997 6.22322 54.3939 6.19629 54.3879C6.05615 54.3569 5.91854 54.3232 5.7832 54.2874C5.75319 54.2794 5.72313 54.2721 5.69336 54.2639C5.54081 54.222 5.39111 54.1783 5.24512 54.1301C5.14585 54.0974 5.04819 54.0632 4.95215 54.0276C4.919 54.0153 4.88628 54.0022 4.85352 53.9895C4.78021 53.9612 4.70803 53.9317 4.63672 53.9016C4.60963 53.8902 4.58246 53.8791 4.55566 53.8674C4.46264 53.8269 4.37168 53.7842 4.28223 53.7405C4.25468 53.727 4.2274 53.7132 4.2002 53.6995C4.01144 53.604 3.83081 53.5019 3.65918 53.3918C3.64632 53.3836 3.63385 53.3748 3.62109 53.3665C3.4394 53.2478 3.2675 53.1213 3.10645 52.9856C3.1015 52.9814 3.09672 52.9771 3.0918 52.9729C3.01586 52.9084 2.94222 52.8421 2.87109 52.7737C2.86329 52.7662 2.8554 52.7588 2.84766 52.7512C2.77721 52.6825 2.70907 52.612 2.64355 52.5393C2.63165 52.5261 2.62014 52.5126 2.6084 52.4993C2.54829 52.431 2.4903 52.3611 2.43457 52.2893C2.42474 52.2767 2.41497 52.264 2.40527 52.2512C2.35026 52.1788 2.29758 52.1045 2.24707 52.0286C2.23287 52.0072 2.21891 51.9857 2.20508 51.9641C2.19332 51.9457 2.18044 51.928 2.16895 51.9094L2.05957 51.7219L1.95996 51.5286C1.95024 51.5086 1.94202 51.4881 1.93262 51.468C1.91651 51.4337 1.90091 51.3992 1.88574 51.3645C1.84654 51.2749 1.8094 51.1848 1.77637 51.093C1.77125 51.0788 1.76669 51.0643 1.76172 51.05C1.733 50.9676 1.70746 50.8842 1.68359 50.8C1.6777 50.7792 1.67162 50.7585 1.66602 50.7375C1.63917 50.6374 1.61589 50.5362 1.5957 50.4338C1.59378 50.4241 1.59171 50.4143 1.58984 50.4045C1.5491 50.1908 1.52246 49.9724 1.50977 49.7493C1.50875 49.7314 1.50768 49.7135 1.50684 49.6956C1.49595 49.4635 1.49961 49.2268 1.51758 48.9856C1.51777 48.983 1.51836 48.9804 1.51855 48.9778C1.52692 48.8674 1.53754 48.756 1.55176 48.6438C1.55513 48.6171 1.55881 48.5905 1.5625 48.5637C1.59334 48.341 1.63554 48.1151 1.68848 47.886C1.69596 47.8535 1.70302 47.8209 1.71094 47.7883C1.72228 47.7417 1.73582 47.6955 1.74805 47.6487C1.77538 47.5438 1.80427 47.4382 1.83594 47.3323C1.85208 47.2783 1.86946 47.2244 1.88672 47.1702C1.92283 47.0565 1.96107 46.9422 2.00195 46.8274C2.01555 46.7892 2.02787 46.7505 2.04199 46.7122C2.14927 46.4211 2.27099 46.1265 2.40723 45.8293C2.41907 45.8035 2.43227 45.7781 2.44434 45.7522C2.46283 45.7125 2.48198 45.6729 2.50098 45.6331C2.55827 45.513 2.6177 45.3922 2.67969 45.2708C2.70637 45.2185 2.73325 45.166 2.76074 45.1135C2.81074 45.0182 2.86222 44.9225 2.91504 44.8264C2.95944 44.7456 3.00453 44.6644 3.05078 44.5833C3.2311 44.2669 3.42616 43.9464 3.63574 43.6223C3.67179 43.5666 3.70918 43.5113 3.74609 43.4553C3.827 43.3326 3.90919 43.2089 3.99414 43.0852C4.02409 43.0416 4.05451 42.9981 4.08496 42.9543C4.45046 42.4294 4.85089 41.8952 5.28613 41.3547C5.32272 41.3093 5.36039 41.2645 5.39746 41.219C5.5081 41.0831 5.6205 40.9465 5.73535 40.8098C5.77962 40.7571 5.82425 40.7044 5.86914 40.6516C5.9979 40.5001 6.12889 40.3479 6.2627 40.1956C6.27791 40.1782 6.29233 40.1602 6.30762 40.1428C6.63601 39.7702 6.97928 39.395 7.33691 39.0178C7.37736 38.9752 7.41914 38.9336 7.45996 38.8909C7.54751 38.7993 7.63539 38.7063 7.72461 38.6145L8.38867 37.9309L8.39062 37.9436C9.45087 36.8936 10.617 35.8298 11.8789 34.7649L12.709 34.0647L12.7012 35.1506C12.7008 35.1982 12.7012 35.2445 12.7012 35.2903C12.7012 37.8485 13.2001 40.2892 14.1055 42.5208L14.2314 42.8323L13.9912 43.0676C13.7411 43.3112 13.4989 43.5528 13.2646 43.7922L13.167 43.8928C12.9419 44.1245 12.7235 44.3531 12.5137 44.5803C11.6407 45.5254 10.9587 46.3704 10.4365 47.1008C10.7113 47.0849 11.0033 47.0634 11.3125 47.0325C11.6621 46.9975 12.0338 46.9525 12.4277 46.8958C12.8217 46.839 13.238 46.7709 13.6768 46.6897L14.709 46.4836C19.9744 45.3563 26.8036 42.7846 33.9912 38.8206C40.6548 35.1455 46.1412 31.0913 49.9043 27.4504C49.973 27.384 50.0399 27.3164 50.1074 27.2502C50.5971 26.7705 51.0587 26.3002 51.4863 25.8372C51.6376 25.6734 51.7829 25.5124 51.9229 25.3547C52.5908 24.6025 53.1309 23.9198 53.5625 23.3157C52.6662 23.3676 51.5881 23.4948 50.3232 23.7288C50.2407 23.744 50.1577 23.7596 50.0742 23.7756C49.9496 23.7997 49.8239 23.824 49.6973 23.8499C49.6304 23.8634 49.5635 23.8778 49.4961 23.8918C49.3391 23.9247 49.1806 23.959 49.0205 23.9944C48.7089 24.0634 48.3917 24.1371 48.0693 24.2161L47.7422 24.2961L47.5449 24.0237C46.0695 21.9844 44.2044 20.2457 42.0586 18.9172L41.1367 18.3459L42.1689 18.0159C43.014 17.7452 43.8443 17.4974 44.6572 17.2727L44.6387 17.262L45.8408 16.9573C47.1859 16.6164 48.4798 16.3445 49.71 16.1409C49.7641 16.1319 49.8182 16.1232 49.8721 16.1145C50.1039 16.0771 50.3334 16.0423 50.5605 16.01C50.5641 16.0095 50.5677 16.0086 50.5713 16.0081C50.8189 15.9729 51.0638 15.9414 51.3057 15.9124C51.3122 15.9116 51.3187 15.9102 51.3252 15.9094C51.8134 15.8511 52.2895 15.805 52.7529 15.7717C52.7741 15.7702 52.7953 15.7693 52.8164 15.7678C53.0261 15.7533 53.2331 15.741 53.4375 15.7317C53.4616 15.7306 53.4857 15.7298 53.5098 15.7288C53.7027 15.7205 53.8931 15.7147 54.0811 15.7112C54.1186 15.7105 54.156 15.7097 54.1934 15.7092C54.3628 15.7069 54.5301 15.7076 54.6953 15.7092Z" stroke="white"/>
<path d="M12.2009 35.2905C12.2009 37.9144 12.7129 40.4187 13.6421 42.709C13.1085 43.2287 12.6095 43.7404 12.1466 44.2415C10.9194 45.5702 10.0543 46.7113 9.47691 47.6307C10.5626 47.6329 11.9894 47.5105 13.7681 47.1814C14.4367 47.0577 15.1332 46.9088 15.8549 46.7354C17.3505 48.8342 19.2465 50.6276 21.4314 52.0048C11.918 55.0123 4.46624 55.0491 2.49771 51.4803C0.525407 47.9042 4.55205 41.6025 12.2016 35.1472C12.2012 35.195 12.2009 35.2427 12.2009 35.2905Z" fill="black"/>
<path d="M42.3214 18.4918C51.9531 15.4064 59.5175 15.338 61.5029 18.9378L61.5701 19.0657C63.388 22.6806 59.3176 28.9525 51.6866 35.3641C51.6867 35.3396 51.6872 35.3151 51.6872 35.2905C51.6872 32.6513 51.1693 30.1331 50.2296 27.8319C50.8116 27.2697 51.3541 26.7176 51.8537 26.1767C53.0809 24.848 53.9453 23.7065 54.5227 22.7872C53.4371 22.785 52.0106 22.9077 50.2322 23.2367C49.5035 23.3715 48.7418 23.5365 47.9504 23.7303C46.4367 21.6382 44.523 19.8547 42.3214 18.4918Z" fill="black"/>
<path d="M45.9635 17.4422C53.8244 15.4497 59.7752 15.806 61.5026 18.938L61.5698 19.0659C64.3223 24.539 53.5777 36.1047 37.4111 45.0209C21.1174 54.0071 5.48619 56.8991 2.4974 51.4802C0.917721 48.6158 3.18661 44.0032 8.08295 38.9633C8.18146 39.4623 8.34587 39.9391 8.5791 40.3894C9.36285 41.9027 10.8401 42.9521 12.8079 43.5444C12.58 43.7789 12.3594 44.0111 12.1466 44.2415C10.9193 45.5702 10.054 46.7115 9.4766 47.6308C10.5623 47.633 11.9891 47.5103 13.7678 47.1813C19.2219 46.1723 26.5321 43.5055 34.233 39.2583C41.9339 35.0111 48.09 30.2511 51.8534 26.1765C53.0805 24.8479 53.945 23.7067 54.5224 22.7873C53.4368 22.7852 52.0103 22.9076 50.2319 23.2366C49.7795 23.3203 49.3144 23.4161 48.8373 23.5226C49.0444 22.1678 48.8868 20.909 48.3167 19.8082C47.807 18.824 47.0041 18.0358 45.9635 17.4422Z" fill="black"/>
<path d="M36.5511 8.96631C36.5511 13.5096 40.2342 17.1926 44.7775 17.1926C40.2342 17.1926 36.5511 20.8757 36.5511 25.419C36.5511 20.8757 32.8681 17.1926 28.3248 17.1926C32.8681 17.1926 36.5511 13.5096 36.5511 8.96631Z" fill="#D9D9D9" stroke="black"/>
<defs>
<filter id="filter0_d_63_21" x="4.60081" y="11.9474" width="54.6863" height="54.6863" filterUnits="userSpaceOnUse" color-interpolation-filters="sRGB">
<feFlood flood-opacity="0" result="BackgroundImageFix"/>
<feColorMatrix in="SourceAlpha" type="matrix" values="0 0 0 0 0 0 0 0 0 0 0 0 0 0 0 0 0 0 127 0" result="hardAlpha"/>
<feMorphology radius="2" operator="dilate" in="SourceAlpha" result="effect1_dropShadow_63_21"/>
<feOffset dy="4"/>
<feGaussianBlur stdDeviation="2.8"/>
<feComposite in2="hardAlpha" operator="out"/>
<feColorMatrix type="matrix" values="0 0 0 0 0 0 0 0 0 0 0 0 0 0 0 0 0 0 0.14 0"/>
<feBlend mode="normal" in2="BackgroundImageFix" result="effect1_dropShadow_63_21"/>
<feBlend mode="normal" in="SourceGraphic" in2="effect1_dropShadow_63_21" result="shape"/>
</filter>
</defs>
</svg>
