<svg width="64" height="64" viewBox="0 0 64 64" fill="none" xmlns="http://www.w3.org/2000/svg">
<path d="M51.6871 35.2905C51.6871 46.1944 42.8478 55.0337 31.944 55.0337C21.0401 55.0337 12.2008 46.1944 12.2008 35.2905C12.2008 24.3866 21.0401 15.5473 31.944 15.5473C42.8478 15.5473 51.6871 24.3866 51.6871 35.2905Z" fill="black"/>
<path d="M12.2008 35.2905C12.2008 37.9143 12.7128 40.4187 13.6421 42.709C13.1084 43.2287 12.6094 43.7404 12.1466 44.2415C10.9194 45.5702 10.0543 46.7113 9.47688 47.6307C10.5626 47.6329 11.9894 47.5105 13.7681 47.1815C14.4367 47.0578 15.1332 46.9088 15.8548 46.7354C17.3504 48.8342 19.2465 50.6277 21.4314 52.0048C11.918 55.0124 4.46621 55.0491 2.49769 51.4804C0.52538 47.9042 4.55202 41.6025 12.2015 35.1472C12.2012 35.195 12.2008 35.2427 12.2008 35.2905Z" fill="black"/>
<path d="M42.3214 18.4918C51.9531 15.4064 59.5175 15.338 61.5029 18.9378L61.57 19.0657C63.388 22.6806 59.3176 28.9525 51.6866 35.3641C51.6867 35.3397 51.6871 35.315 51.6871 35.2905C51.6871 32.6513 51.1693 30.1332 50.2296 27.8319C50.8115 27.2697 51.3541 26.7176 51.8537 26.1767C53.0808 24.848 53.9453 23.7065 54.5227 22.7872C53.4371 22.7851 52.0105 22.9077 50.2322 23.2367C49.5035 23.3716 48.7418 23.5365 47.9503 23.7303C46.4367 21.6382 44.523 19.8547 42.3214 18.4918Z" fill="black"/>
<path d="M36.5511 8.96631C36.5511 13.5096 40.2342 17.1926 44.7774 17.1926C40.2342 17.1926 36.5511 20.8757 36.5511 25.419C36.5511 20.8757 32.8681 17.1926 28.3248 17.1926C32.8681 17.1926 36.5511 13.5096 36.5511 8.96631Z" fill="white"/>
<path d="M51.6871 35.2905C51.6871 46.1944 42.8478 55.0337 31.944 55.0337C21.0401 55.0337 12.2008 46.1944 12.2008 35.2905M51.6871 35.2905C51.6871 24.3866 42.8478 15.5473 31.944 15.5473C21.0401 15.5473 12.2008 24.3866 12.2008 35.2905M51.6871 35.2905C51.6871 35.315 51.6867 35.3397 51.6866 35.3641C59.3176 28.9525 63.388 22.6806 61.57 19.0657M51.6871 35.2905C51.6871 32.6513 51.1693 30.1332 50.2296 27.8319C50.8115 27.2697 51.3541 26.7176 51.8537 26.1767M12.2008 35.2905C12.2008 37.9143 12.7128 40.4187 13.6421 42.709C13.1084 43.2287 12.6094 43.7404 12.1466 44.2415C10.9194 45.5702 10.0543 46.7113 9.47688 47.6307C10.5626 47.6329 11.9894 47.5105 13.7681 47.1815M12.2008 35.2905C12.2008 35.2427 12.2012 35.195 12.2015 35.1472C4.55202 41.6025 0.52538 47.9042 2.49769 51.4804M13.7681 47.1815C14.4367 47.0578 15.1332 46.9088 15.8548 46.7354C17.3504 48.8342 19.2465 50.6277 21.4314 52.0048C11.918 55.0124 4.46621 55.0491 2.49769 51.4804M13.7681 47.1815C19.2222 46.1724 26.5321 43.5055 34.233 39.2583C41.9339 35.0111 48.0903 30.2513 51.8537 26.1767M2.49769 51.4804C5.48647 56.8993 21.1174 54.0071 37.411 45.0209C53.5777 36.1048 64.3226 24.5389 61.57 19.0657M2.49769 51.4804C0.918002 48.616 3.18659 44.0032 8.08292 38.9633M61.5029 18.9378C59.5175 15.338 51.9531 15.4064 42.3214 18.4918C44.523 19.8547 46.4367 21.6382 47.9503 23.7303C48.7418 23.5365 49.5035 23.3716 50.2322 23.2367M61.5029 18.9378L61.57 19.0657M61.5029 18.9378C59.7755 15.8058 53.8244 15.4497 45.9635 17.4422M51.8537 26.1767C53.0808 24.848 53.9453 23.7065 54.5227 22.7872C53.4371 22.7851 52.0105 22.9077 50.2322 23.2367M50.2322 23.2367C49.7797 23.3204 49.3144 23.4161 48.8373 23.5226M36.5511 8.96631C36.5511 13.5096 40.2342 17.1926 44.7774 17.1926C40.2342 17.1926 36.5511 20.8757 36.5511 25.419C36.5511 20.8757 32.8681 17.1926 28.3248 17.1926C32.8681 17.1926 36.5511 13.5096 36.5511 8.96631Z" stroke="white"/>
</svg>
