<svg width="350" height="120" viewBox="0 0 350 120" fill="none" xmlns="http://www.w3.org/2000/svg">
<g clip-path="url(#clip0_63_54)">
<path d="M46.592 95.104C39.5094 95.104 33.1094 93.9093 27.392 91.52C21.6747 89.0453 16.768 85.6747 12.672 81.408C8.66134 77.1413 5.54667 72.192 3.328 66.56C1.10934 60.928 0 54.912 0 48.512C0 42.1973 1.10934 36.224 3.328 30.592C5.54667 24.96 8.66134 20.0107 12.672 15.744C16.768 11.4773 21.6747 8.14933 27.392 5.75999C33.1094 3.37066 39.5094 2.17599 46.592 2.17599C53.6747 2.17599 60.0747 3.37066 65.792 5.75999C71.5094 8.14933 76.3734 11.4773 80.384 15.744C84.48 20.0107 87.6374 24.96 89.856 30.592C92.0747 36.224 93.184 42.24 93.184 48.64C93.184 54.9547 92.0747 60.928 89.856 66.56C87.6374 72.192 84.48 77.1413 80.384 81.408C76.3734 85.6747 71.5094 89.0453 65.792 91.52C60.0747 93.9093 53.6747 95.104 46.592 95.104ZM46.592 84.224C51.456 84.224 55.9787 83.328 60.16 81.536C64.3414 79.744 67.968 77.2267 71.04 73.984C74.1974 70.7413 76.6294 66.9867 78.336 62.72C80.0427 58.368 80.896 53.632 80.896 48.512C80.896 43.4773 80.0427 38.784 78.336 34.432C76.6294 30.08 74.24 26.3253 71.168 23.168C68.096 19.9253 64.4267 17.4507 60.16 15.744C55.9787 13.952 51.456 13.056 46.592 13.056C41.6427 13.056 37.0774 13.952 32.896 15.744C28.7147 17.4507 25.088 19.9253 22.016 23.168C18.944 26.3253 16.5547 30.08 14.848 34.432C13.1414 38.784 12.288 43.52 12.288 48.64C12.288 53.6747 13.1414 58.368 14.848 62.72C16.5547 66.9867 18.944 70.7413 22.016 73.984C25.088 77.2267 28.7147 79.744 32.896 81.536C37.0774 83.328 41.6427 84.224 46.592 84.224ZM107.459 93.44V46.72C107.459 40.9173 109.08 36.3947 112.323 33.152C115.651 29.824 120.216 28.16 126.019 28.16H139.459V38.272H128.195C125.379 38.272 123.16 39.0827 121.539 40.704C120.003 42.3253 119.235 44.5867 119.235 47.488V93.44H107.459ZM183.367 94.976C177.052 94.976 171.378 93.6107 166.343 90.88C161.308 88.1493 157.298 84.224 154.311 79.104C151.41 73.8987 149.959 67.6693 149.959 60.416V0H161.735V39.808H161.991C163.442 37.1627 165.319 34.8587 167.623 32.896C170.012 30.9333 172.7 29.3973 175.687 28.288C178.759 27.1787 181.959 26.624 185.287 26.624C191.346 26.624 196.764 27.9893 201.543 30.72C206.322 33.4507 210.076 37.3333 212.807 42.368C215.623 47.3173 217.031 53.2053 217.031 60.032C217.031 65.408 216.178 70.272 214.471 74.624C212.85 78.8907 210.546 82.56 207.559 85.632C204.572 88.704 201.031 91.0507 196.935 92.672C192.839 94.208 188.316 94.976 183.367 94.976ZM183.367 84.864C187.378 84.864 191.004 83.8827 194.247 81.92C197.575 79.9573 200.22 77.184 202.183 73.6C204.146 70.016 205.127 65.7493 205.127 60.8C205.127 56.0213 204.146 51.84 202.183 48.256C200.306 44.672 197.746 41.856 194.503 39.808C191.26 37.76 187.591 36.736 183.495 36.736C179.484 36.736 175.815 37.7173 172.487 39.68C169.244 41.6427 166.642 44.4587 164.679 48.128C162.802 51.712 161.863 55.9787 161.863 60.928C161.863 65.792 162.802 70.016 164.679 73.6C166.642 77.184 169.244 79.9573 172.487 81.92C175.815 83.8827 179.442 84.864 183.367 84.864ZM256.797 119.424V94.464C252.018 93.7813 247.752 92.2027 243.997 89.728C240.328 87.168 237.426 83.8827 235.293 79.872C233.16 75.776 232.093 71.1253 232.093 65.92V28.16H243.997V65.792C243.997 69.7173 244.85 73.1307 246.557 76.032C248.264 78.848 250.525 81.024 253.341 82.56C256.242 84.096 259.314 84.864 262.557 84.864C265.885 84.864 268.957 84.096 271.773 82.56C274.674 81.024 276.978 78.848 278.685 76.032C280.477 73.1307 281.373 69.7173 281.373 65.792V28.16H293.149V65.92C293.149 71.1253 292.082 75.7333 289.949 79.744C287.901 83.7547 285 87.04 281.245 89.6C277.576 92.0747 273.352 93.696 268.573 94.464V119.424H256.797ZM334.115 93.44C328.312 93.44 323.747 91.776 320.419 88.448C317.176 85.12 315.555 80.5973 315.555 74.88V11.776H327.331V74.112C327.331 76.928 328.099 79.1893 329.635 80.896C331.256 82.5173 333.475 83.328 336.291 83.328H349.475V93.44H334.115ZM304.291 38.272V28.16H349.731V38.272H304.291Z" fill="white"/>
</g>
<defs>
<clipPath id="clip0_63_54">
<rect width="350" height="120" fill="white"/>
</clipPath>
</defs>
</svg>
